<?xml version="1.0" encoding="utf-8"?>
<svg version="1.1" xmlns="http://www.w3.org/2000/svg" xmlns:xlink="http://www.w3.org/1999/xlink" height="21.13623822018708" width="24.20364371240111">
  <defs>
    <path id="path-1" opacity="1" fill-rule="evenodd" d="M17.366436004638672,17.237285614013672 C17.84790802001953,17.408306121826172 18.370220184326172,17.489288330078125 18.911911010742188,17.460899353027344 L20.209125518798828,17.392913818359375 C22.413761138916016,17.277374267578125 24.109840393066406,15.393688201904297 23.994300842285156,13.189056396484375 L23.713470458984375,7.830461502075195 C23.59792709350586,5.625825881958008 21.71424102783203,3.929746627807617 19.509605407714844,4.045286178588867 L18.212390899658203,4.113271713256836 C17.110130310058594,4.171037673950195 16.134994506835938,4.670795440673828 15.449844360351562,5.431671142578125 C15.53005599975586,5.596639633178711 15.599842071533203,5.769084930419922 15.658123016357422,5.948457717895508 L18.093982696533203,13.445262908935547 C18.53351593017578,14.79800796508789 18.21218490600586,16.216697692871094 17.366436004638672,17.237285614013672Z"/>
    <path id="path-2" opacity="1" fill-rule="evenodd" d="M6.463020305293025,1.5681191100935408 L11.463020305293025,1.5681191100935408 C13.670680403269024,1.5681191100935408 15.463020305293025,3.360459012117541 15.463020305293025,5.568119110093541 L15.463020305293025,15.56811911009354 C15.463020305293025,17.77577920806954 13.670680403269024,19.56811911009354 11.463020305293025,19.56811911009354 L6.463020305293025,19.56811911009354 C4.255360207317025,19.56811911009354 2.4630203052930253,17.77577920806954 2.463020305293025,15.56811911009354 L2.463020305293025,5.568119110093541 C2.463020305293025,3.3604590121175413 4.255360207317024,1.5681191100935412 6.463020305293025,1.5681191100935408Z"/>
  </defs>
  <g opacity="1">
    <g>
      <use xlink:href="#path-1" fill="rgb(255,255,255)" fill-opacity="1"/>
    </g>
    <g transform="translate(8.963020305293025, 10.56811911009354) rotate(-18.000006436155008) translate(-8.963020305293025, -10.56811911009354)" opacity="1">
      <use xlink:href="#path-2" fill="rgb(255,51,102)" fill-opacity="1"/>
    </g>
  </g>
</svg>